<?xml version="1.0" standalone="no"?>
<!DOCTYPE svg PUBLIC "-//W3C//DTD SVG 20010904//EN"
 "http://www.w3.org/TR/2001/REC-SVG-20010904/DTD/svg10.dtd">
<svg version="1.0" xmlns="http://www.w3.org/2000/svg"
 width="512.000000pt" height="512.000000pt" viewBox="0 0 512.000000 512.000000"
 preserveAspectRatio="xMidYMid meet">
<metadata>
Created by potrace 1.11, written by Peter Selinger 2001-2013
</metadata>
<g transform="translate(0.000000,512.000000) scale(0.100000,-0.100000)"
fill="#000000" stroke="none">
<path d="M1362 4317 l-362 -362 2 -1655 3 -1655 26 -56 c33 -71 87 -125 158
-158 l56 -26 1335 0 1335 0 56 26 c71 33 125 87 158 158 l26 56 0 1895 0 1895
-26 56 c-33 71 -87 125 -158 158 l-56 26 -1095 3 -1095 2 -363 -363z m2564
177 c15 -11 37 -33 48 -48 l21 -27 0 -1879 0 -1879 -21 -27 c-11 -15 -33 -37
-48 -48 -27 -21 -30 -21 -1346 -21 -1316 0 -1319 0 -1346 21 -15 11 -37 33
-48 48 -21 27 -21 29 -24 1676 l-2 1648 162 4 c187 4 230 16 305 90 73 72 87
118 91 306 l4 162 1088 -2 c1082 -3 1089 -3 1116 -24z"/>
<path d="M2420 3992 c-80 -27 -130 -55 -174 -99 -75 -74 -94 -156 -79 -336 l9
-98 -25 -12 c-35 -17 -46 -61 -31 -130 12 -62 45 -117 76 -131 12 -6 41 -52
72 -118 46 -95 52 -116 52 -172 l0 -63 -207 -53 c-115 -29 -221 -60 -236 -67
-40 -20 -67 -88 -77 -192 -10 -103 -11 -101 105 -136 361 -110 1027 -107 1383
6 l92 30 0 57 c0 69 -21 162 -44 196 -24 38 -51 48 -283 107 l-213 54 0 67 c0
59 4 74 41 139 23 41 48 88 56 106 10 24 20 33 37 33 30 0 63 43 82 107 27 88
14 163 -27 163 -20 0 -21 3 -14 144 7 136 6 147 -14 190 -25 51 -92 116 -119
116 -10 0 -29 11 -41 24 -12 13 -50 37 -84 52 -54 25 -76 29 -172 31 -86 2
-122 -1 -165 -15z"/>
<path d="M1762 2030 c-28 -12 -45 -54 -37 -92 14 -61 -28 -58 867 -58 586 0
824 3 842 11 54 25 58 110 6 136 -20 10 -205 13 -840 12 -465 0 -825 -4 -838
-9z"/>
<path d="M1762 1630 c-28 -12 -45 -54 -37 -92 14 -61 -28 -58 867 -58 586 0
824 3 842 11 54 25 58 110 6 136 -20 10 -205 13 -840 12 -465 0 -825 -4 -838
-9z"/>
<path d="M1762 1230 c-28 -12 -45 -54 -37 -92 14 -61 -28 -58 867 -58 586 0
824 3 842 11 54 25 58 110 6 136 -20 10 -205 13 -840 12 -465 0 -825 -4 -838
-9z"/>
</g>
</svg>
